<svg xmlns="http://www.w3.org/2000/svg" version="1.1" xmlns:xlink="http://www.w3.org/1999/xlink"
    xmlns:svgjs="http://svgjs.dev/svgjs" width="1500" height="314" viewBox="0 0 1500 314">
    <g transform="matrix(1,0,0,1,-0.9090909090909918,-0.6081691353768974)">
        <svg viewBox="0 0 396 83" data-background-color="#ffffff"
            preserveAspectRatio="xMidYMid meet" height="314" width="1500"
            xmlns="http://www.w3.org/2000/svg" xmlns:xlink="http://www.w3.org/1999/xlink">
            <g id="tight-bounds" transform="matrix(1,0,0,1,0.2400000000000091,0.16075808355503796)">
                <svg viewBox="0 0 395.52 82.67848383288992" height="82.67848383288992"
                    width="395.52">
                    <g>
                        <svg viewBox="0 0 480.37303351175956 100.41594378276271"
                            height="82.67848383288992" width="395.52">
                            <g transform="matrix(1,0,0,1,84.8530335117596,13.878035645808744)">
                                <svg viewBox="0 0 395.52 72.65987249114522"
                                    height="72.65987249114522" width="395.52">
                                    <g id="textblocktransform">
                                        <svg viewBox="0 0 395.52 72.65987249114522"
                                            height="72.65987249114522" width="395.52" id="textblock">
                                            <g>
                                                <svg viewBox="0 0 395.52 72.65987249114522"
                                                    height="72.65987249114522" width="395.52">
                                                    <g transform="matrix(1,0,0,1,0,0)">
                                                        <svg width="395.52"
                                                            viewBox="4.05 -38.3 211.73 38.9"
                                                            height="72.65987249114522"
                                                            data-palette-color="#000000">
                                                            <path
                                                                d="M15.95 0.6Q13.15 0.6 10-0.15 6.85-0.9 4.05-2.2L4.05-2.2 4.05-8.6Q10.55-5.1 15.65-5.1L15.65-5.1Q18.2-5.1 19.78-6.2 21.35-7.3 21.35-9.3L21.35-9.3Q21.35-10.7 20.48-11.68 19.6-12.65 18.3-13.28 17-13.9 14.6-14.8L14.6-14.8Q11.35-16 9.3-17.1 7.25-18.2 5.8-20.23 4.35-22.25 4.35-25.45L4.35-25.45Q4.35-30.15 7.6-32.77 10.85-35.4 16.5-35.4L16.5-35.4Q19.15-35.4 21.7-34.83 24.25-34.25 26.4-33.15L26.4-33.15 26.4-26.9Q21.35-29.7 16.65-29.7L16.65-29.7Q14.05-29.7 12.58-28.78 11.1-27.85 11.1-26.15L11.1-26.15Q11.1-24.45 12.63-23.48 14.15-22.5 17.35-21.35L17.35-21.35Q20.7-20.1 22.85-18.95 25-17.8 26.58-15.63 28.15-13.45 28.25-10L28.25-10Q28.25-5.05 24.9-2.23 21.55 0.6 15.95 0.6L15.95 0.6ZM52.65 0L46-10.95 43-7.65 43 0 36.4 0 36.4-37.7 43-37.7 43-15.6 52.1-26.1 59.6-26.1 50.1-15.55 60.2 0 52.65 0ZM68-30Q66.3-30 65.09-31.15 63.9-32.3 63.9-34.15L63.9-34.15Q63.9-36 65.09-37.15 66.3-38.3 68-38.3L68-38.3Q69.7-38.3 70.9-37.15 72.09-36 72.09-34.15L72.09-34.15Q72.09-32.3 70.9-31.15 69.7-30 68-30L68-30ZM64.7-26.05L71.3-26.1 71.3 0 64.7 0 64.7-26.05ZM78.69 0L78.69-37.7 85.29-37.7 85.29 0 78.69 0ZM92.69 0L92.69-37.7 99.29-37.7 99.29 0 92.69 0ZM119.39 0.6Q115.29 0.6 112.21-1.07 109.14-2.75 107.49-5.8 105.84-8.85 105.84-12.95L105.84-12.95Q105.84-17.05 107.54-20.18 109.24-23.3 112.31-25 115.39-26.7 119.39-26.7L119.39-26.7Q123.89-26.7 126.99-24.85L126.99-24.85 126.99-19.05 126.79-19.05Q125.14-20.05 123.21-20.55 121.29-21.05 119.64-21.05L119.64-21.05Q116.19-21.05 114.44-19 112.69-16.95 112.69-12.95L112.69-12.95Q112.69-5.05 119.54-5.05L119.54-5.05Q121.34-5.05 123.21-5.63 125.09-6.2 126.79-7.25L126.79-7.25 126.99-7.25 126.99-1.35Q123.79 0.6 119.39 0.6L119.39 0.6ZM146.69-26.7L148.34-26.7 148.34-20.2 147.49-20.2Q143.59-20.2 141.14-18.05L141.14-18.05 141.14 0 134.54 0 134.54-20.3 133.44-26.1 140.04-26.1 140.69-22.65Q142.34-24.9 143.69-25.8 145.04-26.7 146.69-26.7L146.69-26.7ZM177.98 0L171.38 0 170.73-3.15Q167.18 0.6 162.18 0.6L162.18 0.6Q158.23 0.6 155.76-1.45 153.28-3.5 153.28-6.85L153.28-6.85Q153.28-11.2 156.51-13.63 159.73-16.05 165.83-16.05L165.83-16.05Q168.03-16.05 170.23-15.85L170.23-15.85 170.23-16.8Q170.23-19 168.98-20.08 167.73-21.15 165.03-21.15L165.03-21.15Q162.38-21.15 160.11-20.28 157.83-19.4 155.18-17.45L155.18-17.45 155.18-23.35Q157.48-25.1 159.98-25.9 162.48-26.7 165.48-26.7L165.48-26.7Q171.03-26.7 173.96-24.33 176.88-21.95 176.88-17.4L176.88-17.4 176.88-5.8 177.98 0ZM159.88-7.35Q159.88-4.45 163.18-4.45L163.18-4.45Q165.08-4.45 166.78-5.23 168.48-6 170.23-7.7L170.23-7.7 170.23-11.25 165.43-11.25Q162.53-11.25 161.21-10.4 159.88-9.55 159.88-7.35L159.88-7.35ZM185.03 0L185.03-21.2 181.13-21.2 181.13-26.1 185.03-26.1 185.03-29.1Q185.03-33.75 187.18-36.02 189.33-38.3 193.43-38.3L193.43-38.3Q194.98-38.3 196.08-38 197.18-37.7 198.23-37.1L198.23-37.1 198.23-31.65Q196.03-32.8 194.28-32.8L194.28-32.8Q192.83-32.8 192.23-31.98 191.63-31.15 191.63-29.1L191.63-29.1 191.63-26.1 197.73-26.1 197.73-21.2 191.63-21.2 191.63 0 185.03 0ZM209.73-35.4L209.73-26.1 215.73-26.1 215.73-21.2 209.73-21.2 209.73-8.6Q209.73-4.8 212.63-4.8L212.63-4.8Q213.98-4.8 215.78-5.75L215.78-5.75 215.78-0.3Q214.53 0.15 213.45 0.38 212.38 0.6 211.03 0.6L211.03 0.6Q203.13 0.6 203.13-8.6L203.13-8.6 203.13-21.2 199.33-21.2 199.33-26.1 203.13-26.1 203.13-33.1 209.73-35.4Z"
                                                                opacity="1"
                                                                transform="matrix(1,0,0,1,0,0)"
                                                                fill="#000000"
                                                                class="wordmark-text-0"
                                                                data-fill-palette-color="primary"
                                                                id="text-0"></path>
                                                        </svg>
                                                    </g>
                                                </svg>
                                            </g>
                                        </svg>
                                    </g>
                                </svg>
                            </g>
                            <g>
                                <svg viewBox="0 0 67.69978145354001 100.41594378276271"
                                    height="100.41594378276271" width="67.69978145354001">
                                    <g>
                                        <svg xmlns="http://www.w3.org/2000/svg"
                                            xmlns:xlink="http://www.w3.org/1999/xlink" version="1.1"
                                            x="0" y="0" viewBox="13.1 3 41.8 62"
                                            enable-background="new 0 0 68 68" xml:space="preserve"
                                            height="100.41594378276271" width="67.69978145354001"
                                            class="icon-icon-0" data-fill-palette-color="accent"
                                            id="icon-0"><g fill="#000000" data-fill-palette-color="accent"><path d="M37.6 55.5c0 0.1 0 0.2 0 0.4 0 1.7-2.1 4.5-2.8 5.4-0.2 0.3-0.5 0.4-0.8 0.4s-0.6-0.1-0.8-0.4c-0.7-0.8-2.8-3.7-2.8-5.4 0-0.1 0-0.2 0-0.4h-0.1c-0.3 0.5-0.4 1.1-0.4 1.8 0 1.6 2.3 5.2 4.1 7.7 1.8-2.5 4.1-6.1 4.1-7.7 0-0.6-0.1-1.2-0.4-1.8H37.6z" fill="#000000" data-fill-palette-color="accent"></path><polygon points="29.4,51.1 28.8,53.5 29.7,53.5 31.8,53.5 36.2,53.5 38.3,53.5 39.2,53.5 38.6,51.1  " fill="#000000" data-fill-palette-color="accent"></polygon><polygon points="13.1,48.7 26.4,46 26.4,32.1 13.1,44.8  " fill="#000000" data-fill-palette-color="accent"></polygon><polygon points="41.6,32.1 41.6,46 54.9,48.7 54.9,44.8  " fill="#000000" data-fill-palette-color="accent"></polygon><path d="M35.5 55.9c0-0.1 0-0.2 0-0.4h-3c0 0.1 0 0.2 0 0.4 0 0.5 0.7 1.7 1.5 2.9C34.8 57.6 35.5 56.4 35.5 55.9z" fill="#000000" data-fill-palette-color="accent"></path><circle cx="34" cy="17.5" r="2.0" fill="#000000" data-fill-palette-color="accent"></circle><path d="M34 3c-2.9 0-5.6 5.5-5.6 8.8V49h0.2 10.8 0.2v-2.1V29.6 11.8C39.6 8.5 36.9 3 34 3zM35 43.7c0 0.6-0.5 1-1 1s-1-0.5-1-1v-5.8c0-0.6 0.5-1 1-1s1 0.5 1 1V43.7zM35 34c0 0.6-0.5 1-1 1s-1-0.5-1-1v-1.6c0-0.6 0.5-1 1-1s1 0.5 1 1V34zM38.1 17.5c0 2.3-1.8 4.1-4.1 4.1-2.3 0-4.1-1.8-4.1-4.1 0-2.3 1.8-4.1 4.1-4.1C36.3 13.5 38.1 15.3 38.1 17.5z" fill="#000000" data-fill-palette-color="accent"></path></g></svg>
                                    </g>
                                </svg>
                            </g>
                        </svg>
                    </g>
                    <defs></defs>
                </svg>
                <rect width="395.52" height="82.67848383288992" fill="none" stroke="none"
                    visibility="hidden"></rect>
            </g>
        </svg>
    </g>
</svg>