<svg viewBox="0 0 1000 1000" xmlns="http://www.w3.org/2000/svg">
    <defs>
        <clipPath id="a">
            <path fill="currentColor"
                d="M784.5 596.5Q765 693 690 773t-166.5 9q-91.5-71-146-112t-214-105.5Q4 500 73.5 370T286 260.5q143 20.5 236.5-48t230.5-32q137 36.5 94 178t-62.5 238Z" />
        </clipPath>
    </defs>
    <g clip-path="url(#a)">
        <path fill="#EA3A36"
            d="M784.5 596.5Q765 693 690 773t-166.5 9q-91.5-71-146-112t-214-105.5Q4 500 73.5 370T286 260.5q143 20.5 236.5-48t230.5-32q137 36.5 94 178t-62.5 238Z" />
    </g>
</svg>