<svg xmlns="http://www.w3.org/2000/svg" version="1.1" xmlns:xlink="http://www.w3.org/1999/xlink"
    width="68" height="70">
    <g>
        <svg xmlns="http://www.w3.org/2000/svg" xmlns:xlink="http://www.w3.org/1999/xlink"
            version="1.1" x="0" y="0" viewBox="13.1 3 41.8 62" enable-background="new 0 0 68 68"
            xml:space="preserve" height="100.41594378276271" width="67.69978145354001"
            class="icon-icon-0" data-fill-palette-color="accent" id="icon-0">
        <g fill="#ffffff" data-fill-palette-color="accent">
          <path d="M37.6 55.5c0 0.1 0 0.2 0 0.4 0 1.7-2.1 4.5-2.8 5.4-0.2 0.3-0.5 0.4-0.8 0.4s-0.6-0.1-0.8-0.4c-0.7-0.8-2.8-3.7-2.8-5.4 0-0.1 0-0.2 0-0.4h-0.1c-0.3 0.5-0.4 1.1-0.4 1.8 0 1.6 2.3 5.2 4.1 7.7 1.8-2.5 4.1-6.1 4.1-7.7 0-0.6-0.1-1.2-0.4-1.8H37.6z" fill="#ffffff" data-fill-palette-color="accent"></path>
          <polygon points="29.4,51.1 28.8,53.5 29.7,53.5 31.8,53.5 36.2,53.5 38.3,53.5 39.2,53.5 38.6,51.1  " fill="#ffffff" data-fill-palette-color="accent"></polygon>
          <polygon points="13.1,48.7 26.4,46 26.4,32.1 13.1,44.8  " fill="#ffffff" data-fill-palette-color="accent"></polygon>
          <polygon points="41.6,32.1 41.6,46 54.9,48.7 54.9,44.8  " fill="#ffffff" data-fill-palette-color="accent"></polygon>
          <path d="M35.5 55.9c0-0.1 0-0.2 0-0.4h-3c0 0.1 0 0.2 0 0.4 0 0.5 0.7 1.7 1.5 2.9C34.8 57.6 35.5 56.4 35.5 55.9z" fill="#ffffff" data-fill-palette-color="accent"></path>
          <circle cx="34" cy="17.5" r="2.0" fill="#ffffff" data-fill-palette-color="accent"></circle>
          <path d="M34 3c-2.9 0-5.6 5.5-5.6 8.8V49h0.2 10.8 0.2v-2.1V29.6 11.8C39.6 8.5 36.9 3 34 3zM35 43.7c0 0.6-0.5 1-1 1s-1-0.5-1-1v-5.8c0-0.6 0.5-1 1-1s1 0.5 1 1V43.7zM35 34c0 0.6-0.5 1-1 1s-1-0.5-1-1v-1.6c0-0.6 0.5-1 1-1s1 0.5 1 1V34zM38.1 17.5c0 2.3-1.8 4.1-4.1 4.1-2.3 0-4.1-1.8-4.1-4.1 0-2.3 1.8-4.1 4.1-4.1C36.3 13.5 38.1 15.3 38.1 17.5z" fill="#ffffff" data-fill-palette-color="accent"></path>
        </g>
      </svg>
    </g>
</svg>