<svg xmlns="http://www.w3.org/2000/svg" version="1.1" xmlns:xlink="http://www.w3.org/1999/xlink"
    xmlns:svgjs="http://svgjs.dev/svgjs" width="1500" height="462" viewBox="0 0 1500 462">
    <g transform="matrix(1,0,0,1,-0.9090909090909918,-0.6913031074087996)">
        <svg viewBox="0 0 396 122" data-background-color="#ffffff"
            preserveAspectRatio="xMidYMid meet" height="462" width="1500"
            xmlns="http://www.w3.org/2000/svg" xmlns:xlink="http://www.w3.org/1999/xlink">
            <g id="tight-bounds" transform="matrix(1,0,0,1,0.2400000000000091,0.1825519028222402)">
                <svg viewBox="0 0 395.52 121.63489619435552" height="121.63489619435552"
                    width="395.52">
                    <g>
                        <svg viewBox="0 0 550.612609405981 169.33077363571937"
                            height="121.63489619435552" width="395.52">
                            <g>
                                <rect width="6.564064489487967" height="157.57169213323883"
                                    x="131.34513002254545" y="5.87954075124027" fill="#000000"
                                    opacity="1" stroke-width="0" stroke="transparent"
                                    fill-opacity="1" class="rect-yte-0"
                                    data-fill-palette-color="primary" rx="1%" id="yte-0"
                                    data-palette-color="#000000"></rect>
                            </g>
                            <g transform="matrix(1,0,0,1,155.09260940598097,6.271510134656282)">
                                <svg viewBox="0 0 395.52 156.7877533664068"
                                    height="156.7877533664068" width="395.52">
                                    <g id="textblocktransform">
                                        <svg viewBox="0 0 395.52 156.7877533664068"
                                            height="156.7877533664068" width="395.52" id="textblock">
                                            <g>
                                                <svg viewBox="0 0 395.52 156.7877533664068"
                                                    height="156.7877533664068" width="395.52">
                                                    <g transform="matrix(1,0,0,1,0,0)">
                                                        <svg width="395.52"
                                                            viewBox="4.199999999999998 -38.35000000000001 211.65 80.85000000000001"
                                                            height="156.7877533664068"
                                                            data-palette-color="#000000">
                                                            <svg></svg>
                                                            <svg></svg>
                                                            <g class="wordmark-text-0"
                                                                data-fill-palette-color="primary"
                                                                id="text-0">
                                                                <path
                                                                    d="M16.15 0.6c-1.9 0-3.9-0.25-6-0.75-2.1-0.5-4.083-1.183-5.95-2.05v0-5.5c4.233 2.333 8.117 3.5 11.65 3.5v0c2 0 3.593-0.45 4.78-1.35 1.18-0.9 1.77-2.133 1.77-3.7v0c0-1.133-0.323-2.077-0.97-2.83-0.653-0.747-1.47-1.347-2.45-1.8-0.987-0.447-2.33-0.97-4.03-1.57v0c-2.167-0.767-3.917-1.5-5.25-2.2-1.333-0.7-2.473-1.693-3.42-2.98-0.953-1.28-1.43-2.937-1.43-4.97v0c0-3.033 1.077-5.423 3.23-7.17 2.147-1.753 5.053-2.63 8.72-2.63v0c1.733 0 3.433 0.19 5.1 0.57 1.667 0.387 3.217 0.947 4.65 1.68v0 5.35c-3.333-1.867-6.567-2.8-9.7-2.8v0c-2.033 0-3.623 0.39-4.77 1.17-1.153 0.787-1.73 1.863-1.73 3.23v0c0 0.967 0.3 1.783 0.9 2.45 0.6 0.667 1.36 1.207 2.28 1.62 0.913 0.42 2.17 0.913 3.77 1.48v0c2.233 0.8 4.05 1.567 5.45 2.3 1.4 0.733 2.61 1.79 3.63 3.17 1.013 1.387 1.537 3.163 1.57 5.33v0c0 3.2-1.073 5.74-3.22 7.62-2.153 1.887-5.013 2.83-8.58 2.83zM53.25 0l-7.25-11.65-3.55 4v7.65h-5.4v-37.7h5.4v23.35l10.35-11.75h6.25l-9.55 10.6 10.15 15.5zM68-31.1c-1 0-1.85-0.343-2.55-1.03-0.7-0.68-1.05-1.537-1.05-2.57v0c0-1.067 0.35-1.943 1.05-2.63 0.7-0.68 1.55-1.02 2.55-1.02v0c1 0 1.85 0.34 2.55 1.02 0.7 0.687 1.05 1.563 1.05 2.63v0c0 1.033-0.35 1.89-1.05 2.57-0.7 0.687-1.55 1.03-2.55 1.03zM65.3-26.1h5.4v26.1h-5.4zM79.3 0v-37.7h5.4v37.7zM93.3 0v-37.7h5.4v37.7zM118.65 0.6c-2.6 0-4.857-0.567-6.77-1.7-1.92-1.133-3.397-2.727-4.43-4.78-1.033-2.047-1.55-4.403-1.55-7.07v0c0-2.7 0.523-5.083 1.57-7.15 1.053-2.067 2.537-3.683 4.45-4.85 1.92-1.167 4.163-1.75 6.73-1.75v0c3.3 0 5.95 0.75 7.95 2.25v0 4.95h-0.2c-2.2-1.633-4.75-2.45-7.65-2.45v0c-2.333 0-4.117 0.817-5.35 2.45-1.233 1.633-1.85 3.833-1.85 6.6v0c0 2.7 0.61 4.833 1.83 6.4 1.213 1.567 2.987 2.35 5.32 2.35v0c2.9 0 5.567-0.967 8-2.9v0h0.2v5c-2.133 1.767-4.883 2.65-8.25 2.65zM146.6-26.7h1.6v5.6h-0.8c-2.867 0-5.167 0.9-6.9 2.7v0 18.4h-5.4v-20.3l-1.1-5.8h5.4l0.8 4.1c1.233-1.767 2.317-2.993 3.25-3.68 0.933-0.68 1.983-1.02 3.15-1.02zM177.25 0h-5.4l-0.65-3.45c-2.5 2.7-5.5 4.05-9 4.05v0c-2.467 0-4.483-0.677-6.05-2.03-1.567-1.347-2.35-3.137-2.35-5.37v0c0-2.9 1.133-5.093 3.4-6.58 2.267-1.48 5.317-2.22 9.15-2.22v0c1.567 0 3.033 0.067 4.4 0.2v0-1.4c0-1.667-0.457-2.95-1.37-3.85-0.92-0.9-2.213-1.35-3.88-1.35v0c-1.833 0-3.51 0.267-5.03 0.8-1.513 0.533-3.103 1.383-4.77 2.55v0-5c1.533-1.1 3.123-1.883 4.77-2.35 1.653-0.467 3.513-0.7 5.58-0.7v0c3.133 0 5.6 0.823 7.4 2.47 1.8 1.653 2.7 3.93 2.7 6.83v0 11.6zM163.15-3.7c1.433 0 2.76-0.31 3.98-0.93 1.213-0.613 2.42-1.52 3.62-2.72v0-4.25h-4.7c-2.1 0-3.733 0.333-4.9 1-1.167 0.667-1.75 1.8-1.75 3.4v0c0 1.1 0.333 1.957 1 2.57 0.667 0.62 1.583 0.93 2.75 0.93zM185.65 0v-21.8h-4.5v-4.3h4.5v-3c0-3 0.7-5.283 2.1-6.85 1.4-1.567 3.45-2.35 6.15-2.35v0c0.833 0 1.567 0.083 2.2 0.25 0.633 0.167 1.35 0.417 2.15 0.75v0 4.55c-1.267-0.633-2.433-0.95-3.5-0.95v0c-1.3 0-2.24 0.367-2.82 1.1-0.587 0.733-0.88 1.817-0.88 3.25v0 3.25h6.7v4.3h-6.7v21.8zM209.15-35.4v9.3h6.65v4.3h-6.65v13.9c0 1.233 0.26 2.2 0.78 2.9 0.513 0.7 1.287 1.05 2.32 1.05v0c1.067 0 2.267-0.317 3.6-0.95v0 4.6c-1.4 0.6-2.983 0.9-4.75 0.9v0c-2.367 0-4.183-0.717-5.45-2.15-1.267-1.433-1.9-3.467-1.9-6.1v0-14.15h-4.45v-4.3h4.45v-7z"
                                                                    fill="#000000"
                                                                    fill-rule="nonzero"
                                                                    stroke="none" stroke-width="1"
                                                                    stroke-linecap="butt"
                                                                    stroke-linejoin="miter"
                                                                    stroke-miterlimit="10"
                                                                    stroke-dasharray=""
                                                                    stroke-dashoffset="0"
                                                                    font-family="none"
                                                                    font-weight="none"
                                                                    font-size="none"
                                                                    text-anchor="none"
                                                                    style="mix-blend-mode: normal"
                                                                    data-fill-palette-color="primary"
                                                                    opacity="1"></path>
                                                                <path
                                                                    transform="translate(56.5,41.95)"
                                                                    d="M29.55 0l-3.2-8.6h-15.95l-3.2 8.6h-5.4l13.3-34.8h6.8l13.3 34.8zM12.15-13.2h12.45l-6.2-16.6zM65.35 0h-5.15l-0.8-3.45c-2.5 2.667-5.55 4-9.15 4v0c-3.167 0-5.623-1.227-7.37-3.68-1.753-2.447-2.63-5.67-2.63-9.67v0c0-4.233 1.043-7.61 3.13-10.13 2.08-2.513 4.987-3.77 8.72-3.77v0c2.333 0 4.583 0.55 6.75 1.65v0-12.65h5.4v31.9zM51.45-4.1c1.333 0 2.6-0.3 3.8-0.9 1.2-0.6 2.4-1.5 3.6-2.7v0-13.5c-2-0.6-3.95-0.9-5.85-0.9v0c-2.3 0-4.043 0.817-5.23 2.45-1.18 1.633-1.77 3.883-1.77 6.75v0c0 2.7 0.443 4.84 1.33 6.42 0.88 1.587 2.253 2.38 4.12 2.38zM103.1-26.7c2.467 0 4.393 0.767 5.78 2.3 1.38 1.533 2.07 3.617 2.07 6.25v0 18.15h-5.4v-16.15c0-1.933-0.323-3.377-0.97-4.33-0.653-0.947-1.697-1.42-3.13-1.42v0c-1.2 0-2.277 0.257-3.23 0.77-0.947 0.52-1.953 1.313-3.02 2.38v0 0.6 18.15h-5.4v-16.15c0-1.933-0.323-3.377-0.97-4.33-0.653-0.947-1.697-1.42-3.13-1.42v0c-1.2 0-2.277 0.257-3.23 0.77-0.947 0.52-1.953 1.313-3.02 2.38v0 18.75h-5.4v-20.3l-1.1-5.8h5.15l0.8 3.5c1.433-1.467 2.773-2.517 4.02-3.15 1.253-0.633 2.73-0.95 4.43-0.95v0c1.7 0 3.157 0.373 4.37 1.12 1.22 0.753 2.113 1.813 2.68 3.18v0c1.5-1.533 2.893-2.633 4.18-3.3 1.28-0.667 2.787-1 4.52-1zM123-31.1c-1 0-1.85-0.343-2.55-1.03-0.7-0.68-1.05-1.537-1.05-2.57v0c0-1.067 0.35-1.943 1.05-2.63 0.7-0.68 1.55-1.02 2.55-1.02v0c1 0 1.85 0.34 2.55 1.02 0.7 0.687 1.05 1.563 1.05 2.63v0c0 1.033-0.35 1.89-1.05 2.57-0.7 0.687-1.55 1.03-2.55 1.03zM120.3-26.1h5.4v26.1h-5.4zM148.85-26.7c2.533 0 4.517 0.767 5.95 2.3 1.433 1.533 2.15 3.617 2.15 6.25v0 18.15h-5.4v-16.15c0-1.933-0.35-3.377-1.05-4.33-0.7-0.947-1.783-1.42-3.25-1.42v0c-1.3 0-2.477 0.257-3.53 0.77-1.047 0.52-2.137 1.33-3.27 2.43v0 18.7h-5.4v-20.3l-1.1-5.8h5.15l0.8 3.5c1.533-1.467 2.967-2.517 4.3-3.15 1.333-0.633 2.883-0.95 4.65-0.95z"
                                                                    fill="#000000"
                                                                    fill-rule="nonzero"
                                                                    stroke="none" stroke-width="1"
                                                                    stroke-linecap="butt"
                                                                    stroke-linejoin="miter"
                                                                    stroke-miterlimit="10"
                                                                    stroke-dasharray=""
                                                                    stroke-dashoffset="0"
                                                                    font-family="none"
                                                                    font-weight="none"
                                                                    font-size="none"
                                                                    text-anchor="none"
                                                                    style="mix-blend-mode: normal"
                                                                    data-fill-palette-color="primary"
                                                                    opacity="1"></path>
                                                            </g>
                                                        </svg>
                                                    </g>
                                                </svg>
                                            </g>
                                        </svg>
                                    </g>
                                </svg>
                            </g>
                            <g>
                                <svg viewBox="0 0 114.16171512859789 169.33077363571937"
                                    height="169.33077363571937" width="114.16171512859789">
                                    <g>
                                        <svg xmlns="http://www.w3.org/2000/svg"
                                            xmlns:xlink="http://www.w3.org/1999/xlink" version="1.1"
                                            x="0" y="0" viewBox="13.1 3 41.8 62"
                                            enable-background="new 0 0 68 68" xml:space="preserve"
                                            height="169.33077363571937" width="114.16171512859789"
                                            class="icon-icon-0" data-fill-palette-color="accent"
                                            id="icon-0"><g fill="#000000" data-fill-palette-color="accent"><path d="M37.6 55.5V55.9C37.6 57.6 35.5 60.4 34.8 61.3 34.6 61.6 34.3 61.7 34 61.7S33.4 61.6 33.2 61.3C32.5 60.5 30.4 57.6 30.4 55.9V55.5H30.3C30 56 29.9 56.6 29.9 57.3 29.9 58.9 32.2 62.5 34 65 35.8 62.5 38.1 58.9 38.1 57.3 38.1 56.7 38 56.1 37.7 55.5z" fill="#000000" data-fill-palette-color="accent"></path><polygon points="29.4,51.1 28.8,53.5 29.7,53.5 31.8,53.5 36.2,53.5 38.3,53.5 39.2,53.5 38.6,51.1  " fill="#000000" data-fill-palette-color="accent"></polygon><polygon points="13.1,48.7 26.4,46 26.4,32.1 13.1,44.8  " fill="#000000" data-fill-palette-color="accent"></polygon><polygon points="41.6,32.1 41.6,46 54.9,48.7 54.9,44.8  " fill="#000000" data-fill-palette-color="accent"></polygon><path d="M35.5 55.9V55.5H32.5V55.9C32.5 56.4 33.2 57.6 34 58.8 34.8 57.6 35.5 56.4 35.5 55.9" fill="#000000" data-fill-palette-color="accent"></path><circle cx="34" cy="17.5" r="2.0" fill="#000000" data-fill-palette-color="accent"></circle><path d="M34 3C31.1 3 28.4 8.5 28.4 11.8V49H39.6V11.8C39.6 8.5 36.9 3 34 3M35 43.7C35 44.3 34.5 44.7 34 44.7S33 44.2 33 43.7V37.9C33 37.3 33.5 36.9 34 36.9S35 37.4 35 37.9zM35 34C35 34.6 34.5 35 34 35S33 34.5 33 34V32.4C33 31.8 33.5 31.4 34 31.4S35 31.9 35 32.4zM38.1 17.5C38.1 19.8 36.3 21.6 34 21.6S29.9 19.8 29.9 17.5 31.7 13.4 34 13.4C36.3 13.5 38.1 15.3 38.1 17.5" fill="#000000" data-fill-palette-color="accent"></path></g></svg>
                                    </g>
                                </svg>
                            </g>
                        </svg>
                    </g>
                    <defs></defs>
                </svg>
                <rect width="395.52" height="121.63489619435552" fill="none" stroke="none"
                    visibility="hidden"></rect>
            </g>
        </svg>
    </g>
</svg>